HIERARCHY
ROOT Hips
{
	OFFSET 0.000000 0.000000 0.000000
	CHANNELS 6 Xposition Yposition Zposition Xrotation Yrotation Zrotation
	JOINT LeftUpLeg_virtual
	{
		OFFSET 0.000000 0.000000 0.000000
		CHANNELS 3 Xrotation Yrotation Zrotation
		JOINT LeftUpLeg
		{
			OFFSET 10.205400 -3.823500 0.155100
			CHANNELS 3 Xrotation Yrotation Zrotation
			JOINT LeftLeg
			{
				OFFSET 0.708757 -12.982077 0.567790
				CHANNELS 3 Xrotation Yrotation Zrotation
				JOINT LeftFoot
				{
					OFFSET -0.708756 -10.717838 -2.184338
					CHANNELS 3 Xrotation Yrotation Zrotation
					JOINT LeftToeBase
					{
						OFFSET 0.108149 -7.191104 7.560241
						CHANNELS 3 Xrotation Yrotation Zrotation
						JOINT LeftToe_End
						{
							OFFSET 0.070230 0.081724 4.490308
							CHANNELS 3 Xrotation Yrotation Zrotation
							End Site
							{
								OFFSET 0 0 0
							}
						}
					}
				}
			}
		}
	}
	JOINT RightUpLeg_virtual
	{
		OFFSET 0.000000 0.000000 0.000000
		CHANNELS 3 Xrotation Yrotation Zrotation
		JOINT RightUpLeg
		{
			OFFSET -10.205400 -3.823500 0.005500
			CHANNELS 3 Xrotation Yrotation Zrotation
			JOINT RightLeg
			{
				OFFSET -0.708756 -12.982134 0.610632
				CHANNELS 3 Xrotation Yrotation Zrotation
				JOINT RightFoot
				{
					OFFSET 0.708754 -10.717769 -1.945823
					CHANNELS 3 Xrotation Yrotation Zrotation
					JOINT RightToeBase
					{
						OFFSET -0.108140 -7.191069 7.372968
						CHANNELS 3 Xrotation Yrotation Zrotation
						JOINT RightToe_End
						{
							OFFSET -0.070227 0.081735 4.479403
							CHANNELS 3 Xrotation Yrotation Zrotation
							End Site
							{
								OFFSET 0 0 0
							}
						}
					}
				}
			}
		}
	}
	JOINT Spine_virtual
	{
		OFFSET 0.000000 0.000000 0.000000
		CHANNELS 3 Xrotation Yrotation Zrotation
		JOINT Spine
		{
			OFFSET 0.000000 6.876099 0.125700
			CHANNELS 3 Xrotation Yrotation Zrotation
			JOINT Spine1
			{
				OFFSET 0.000000 5.730043 0.104720
				CHANNELS 3 Xrotation Yrotation Zrotation
				JOINT Spine1_split
				{
					OFFSET 0.000000 5.730043 0.104720
					CHANNELS 3 Xrotation Yrotation Zrotation
					JOINT Spine2
					{
						OFFSET 0.000000 5.730043 0.104720
						CHANNELS 3 Xrotation Yrotation Zrotation
						JOINT Neck_virtual
						{
							OFFSET 0.000000 0.000000 0.000000
							CHANNELS 3 Xrotation Yrotation Zrotation
							JOINT Neck
							{
								OFFSET 0.000000 10.314075 0.188496
								CHANNELS 3 Xrotation Yrotation Zrotation
								JOINT Head
								{
									OFFSET 0.000000 7.643700 -2.377400
									CHANNELS 3 Xrotation Yrotation Zrotation
									JOINT HeadTop_End
									{
										OFFSET 0.000000 43.788605 -13.619600
										CHANNELS 3 Xrotation Yrotation Zrotation
										End Site
										{
											OFFSET 0 0 0
										}
									}
								}
							}
						}
						JOINT LeftShoulder_virtual
						{
							OFFSET 0.000000 0.000000 0.000000
							CHANNELS 3 Xrotation Yrotation Zrotation
							JOINT LeftShoulder
							{
								OFFSET 2.196100 4.412489 0.087492
								CHANNELS 3 Xrotation Yrotation Zrotation
								JOINT LeftShoulder_split
								{
									OFFSET 2.196100 4.412489 0.087492
									CHANNELS 3 Xrotation Yrotation Zrotation
									JOINT LeftArm
									{
										OFFSET 8.771219 -2.981674 -0.026999
										CHANNELS 3 Xrotation Yrotation Zrotation
										JOINT LeftForeArm
										{
											OFFSET 8.512804 0.000000 -0.000000
											CHANNELS 3 Xrotation Yrotation Zrotation
											JOINT LeftHand
											{
												OFFSET 18.484802 0.000000 -0.000000
												CHANNELS 3 Xrotation Yrotation Zrotation
												End Site
												{
													OFFSET 0 0 0
												}
											}
										}
									}
								}
							}
						}
						JOINT RightShoulder_virtual
						{
							OFFSET 0.000000 0.000000 0.000000
							CHANNELS 3 Xrotation Yrotation Zrotation
							JOINT RightShoulder
							{
								OFFSET -2.196100 4.412496 0.070690
								CHANNELS 3 Xrotation Yrotation Zrotation
								JOINT RightShoulder_split
								{
									OFFSET -2.196100 4.412496 0.070690
									CHANNELS 3 Xrotation Yrotation Zrotation
									JOINT RightArm
									{
										OFFSET -8.771282 -2.981682 -0.094208
										CHANNELS 3 Xrotation Yrotation Zrotation
										JOINT RightForeArm
										{
											OFFSET -8.494598 0.000000 0.000000
											CHANNELS 3 Xrotation Yrotation Zrotation
											JOINT RightHand
											{
												OFFSET -18.483803 0.000000 0.000001
												CHANNELS 3 Xrotation Yrotation Zrotation
												End Site
												{
													OFFSET 0 0 0
												}
											}
										}
									}
								}
							}
						}
					}
				}
			}
		}
	}
}
MOTION
Frames: 12
Frame Time: 0.03333333
-0.105184 33.108891 0.510021 0.000000 0.000000 0.000000 -6.996558 8.302664 -0.111433 -22.968096 13.303761 14.629720 35.263201 0.843425 5.062155 -8.074870 -12.376520 -12.575988 -5.394961 0.000011 0.000002 0.000000 0.000000 0.000000 -6.996558 8.302664 -0.111433 13.101709 -8.861001 5.644775 18.281030 -8.816062 -6.369052 -22.541149 -19.281151 6.226421 -6.948848 0.000040 0.000005 0.000000 0.000000 0.000000 -6.996558 8.302664 -0.111433 2.796961 1.681500 2.263982 2.151564 0.592692 2.718578 0.000000 0.000000 0.000000 0.000000 0.000000 0.000000 1.782908 0.592694 2.685777 12.499883 -2.705977 -1.038147 1.922681 -10.334638 -7.006738 0.000000 0.000000 0.000000 1.782908 0.592694 2.685777 0.998386 -16.605271 -12.654437 0.000000 0.000000 0.000000 1.183472 -2.628899 -70.794105 0.000001 0.000000 0.000012 0.000000 0.000000 0.000000 1.782908 0.592694 2.685777 0.926036 8.750975 17.196026 0.000000 0.000000 0.000000 27.179230 9.351845 58.116597 -0.000022 4.186837 -0.000020 0.000000 0.000000 0.000000 
-0.059307 33.177299 0.527748 0.000000 0.000000 0.000000 -6.529841 7.419431 -0.240907 -22.578748 13.427200 14.611924 34.685285 0.513175 4.830788 -8.116972 -11.223876 -12.491840 -5.376514 0.000017 -0.000004 0.000000 0.000000 0.000000 -6.529841 7.419431 -0.240907 12.289267 -8.961851 5.248023 18.160238 -8.831127 -6.395559 -22.047350 -18.306041 6.497616 -6.948065 0.000041 0.000005 0.000000 0.000000 0.000000 -6.529841 7.419431 -0.240907 2.735381 1.588740 2.242288 2.229757 0.462799 2.709336 0.000000 0.000000 0.000000 0.000000 0.000000 0.000000 1.815967 0.462783 2.663381 12.069587 -2.397795 -0.979292 1.367184 -8.878460 -6.544922 0.000000 0.000000 0.000000 1.815967 0.462783 2.663381 0.980227 -16.729761 -12.817460 0.000000 0.000000 0.000000 1.380162 -1.285192 -71.138701 0.000005 -0.000003 0.000011 0.000000 0.000000 0.000000 1.815967 0.462783 2.663381 0.966147 8.437345 16.887340 0.000000 0.000000 0.000000 28.204749 8.686331 58.059743 -0.000021 3.688143 -0.000008 0.000000 0.000000 0.000000 
-0.016959 33.245472 0.532444 0.000000 0.000000 0.000000 -6.054656 6.312425 -0.428869 -22.165342 13.536861 14.643627 34.191640 0.092470 4.642923 -8.241100 -9.768547 -12.408307 -5.353532 -0.000001 0.000005 0.000000 0.000000 0.000000 -6.054656 6.312425 -0.428869 11.305659 -9.044157 4.766167 18.145612 -8.846434 -6.232980 -21.538855 -17.074167 6.677307 -6.960072 0.000061 0.000006 0.000000 0.000000 0.000000 -6.054656 6.312425 -0.428869 2.689909 1.541862 2.229514 2.323626 0.402818 2.709164 0.000000 0.000000 0.000000 0.000000 0.000000 0.000000 1.868222 0.402408 2.651738 11.576153 -2.092929 -0.883113 0.830123 -7.486978 -5.921344 0.000000 0.000000 0.000000 1.868222 0.402408 2.651738 0.973015 -16.881885 -12.893303 0.000000 0.000000 0.000000 1.489833 -0.193281 -71.539128 -0.000012 -0.000003 -0.000001 0.000000 0.000000 0.000000 1.868222 0.402408 2.651738 0.974412 8.574782 16.795585 0.000000 0.000000 0.000000 27.644540 6.868334 58.342124 -0.000004 2.537500 0.000004 0.000000 0.000000 0.000000 
0.019602 33.306717 0.525507 0.000000 0.000000 0.000000 -5.592094 5.076731 -0.677640 -21.806933 13.629178 14.750193 33.860933 -0.369527 4.516799 -8.471713 -8.168746 -12.337365 -5.330324 0.000016 -0.000000 0.000000 0.000000 0.000000 -5.592094 5.076731 -0.677640 10.240451 -9.088284 4.323130 18.163940 -8.872384 -6.006433 -20.997934 -15.720643 6.796734 -6.983753 0.000048 0.000002 0.000000 0.000000 0.000000 -5.592094 5.076731 -0.677640 2.658131 1.521165 2.233196 2.427193 0.378846 2.725928 0.000000 0.000000 0.000000 0.000000 0.000000 0.000000 1.933558 0.377380 2.658371 11.059856 -1.796443 -0.761484 0.199264 -6.142647 -5.250598 0.000000 0.000000 0.000000 1.933558 0.377380 2.658371 0.979841 -17.054158 -12.860000 0.000000 0.000000 0.000000 1.661550 0.422367 -71.953844 0.000021 0.000000 0.000011 0.000000 0.000000 0.000000 1.933558 0.377380 2.658371 0.957093 8.904117 16.894294 0.000000 0.000000 0.000000 26.167826 4.868376 58.493870 -0.000015 1.292170 -0.000008 0.000000 0.000000 0.000000 
0.050634 33.358700 0.508879 0.000000 0.000000 0.000000 -5.155747 3.792627 -0.971997 -21.532528 13.715623 14.938749 33.695980 -0.836954 4.431165 -8.792972 -6.556402 -12.267947 -5.309587 0.000007 0.000005 0.000000 0.000000 0.000000 -5.155747 3.792627 -0.971997 9.167294 -9.099695 3.933288 18.174358 -8.907386 -5.698411 -20.439160 -14.307435 6.835187 -7.010369 0.000034 0.000007 0.000000 0.000000 0.000000 -5.155747 3.792627 -0.971997 2.632623 1.505975 2.245017 2.527650 0.357652 2.755403 0.000000 0.000000 0.000000 0.000000 0.000000 0.000000 1.999164 0.354539 2.678584 10.578960 -1.510495 -0.612296 -0.530465 -4.810489 -4.640420 0.000000 0.000000 0.000000 1.999164 0.354539 2.678584 0.994342 -17.190640 -12.748650 0.000000 0.000000 0.000000 1.966103 0.450957 -72.328841 0.000011 -0.000007 0.000008 0.000000 0.000000 0.000000 1.999164 0.354539 2.678584 0.931299 9.222946 17.053488 0.000000 0.000000 0.000000 24.477328 3.700252 58.305753 0.000008 0.487909 0.000001 0.000000 0.000000 0.000000 
0.078624 33.406937 0.485426 0.000000 0.000000 0.000000 -4.744900 2.528027 -1.270100 -21.297196 13.810641 15.163782 33.567788 -1.294722 4.337704 -9.113917 -5.003078 -12.170365 -5.281974 0.000015 0.000001 0.000000 0.000000 0.000000 -4.744900 2.528027 -1.270100 8.142730 -9.107148 3.578430 18.117307 -8.946662 -5.332350 -19.851270 -12.882427 6.808606 -7.039423 0.000039 0.000007 0.000000 0.000000 0.000000 -4.744900 2.528027 -1.270100 2.607463 1.484001 2.252677 2.616108 0.322735 2.777670 0.000000 0.000000 0.000000 0.000000 0.000000 0.000000 2.056161 0.317873 2.692147 10.170269 -1.238511 -0.431785 -1.287434 -3.506901 -4.088086 0.000000 0.000000 0.000000 2.056161 0.317873 2.692147 1.012968 -17.265361 -12.614388 0.000000 0.000000 0.000000 2.352362 -0.034952 -72.612185 0.000007 0.000000 0.000019 0.000000 0.000000 0.000000 2.056161 0.317873 2.692147 0.912534 9.450938 17.165338 0.000000 0.000000 0.000000 22.950242 3.774235 57.874542 -0.000009 0.370969 0.000028 0.000000 0.000000 0.000000 
0.107150 33.456608 0.457081 0.000000 0.000000 0.000000 -4.365387 1.312870 -1.523615 -21.019697 13.924508 15.356891 33.341869 -1.725554 4.197272 -9.354603 -3.529527 -12.024872 -5.237749 0.000004 0.000000 0.000000 0.000000 0.000000 -4.365387 1.312870 -1.523615 7.172977 -9.138852 3.213900 18.016408 -8.981937 -4.947432 -19.250441 -11.477511 6.753958 -7.073109 0.000043 0.000004 0.000000 0.000000 0.000000 -4.365387 1.312870 -1.523615 2.582581 1.453261 2.250269 2.693039 0.273323 2.772668 0.000000 0.000000 0.000000 0.000000 0.000000 0.000000 2.105015 0.267247 2.678887 9.836557 -0.985350 -0.232142 -1.995722 -2.295211 -3.514021 0.000000 0.000000 0.000000 2.105015 0.267247 2.678887 1.032573 -17.323988 -12.492443 0.000000 0.000000 0.000000 2.698289 -0.853009 -72.778794 -0.000000 0.000003 0.000009 0.000000 0.000000 0.000000 2.105015 0.267247 2.678887 0.905938 9.624719 17.187111 0.000000 0.000000 0.000000 21.586396 4.919241 57.415164 -0.000004 0.859994 -0.000001 0.000000 0.000000 0.000000 
0.137651 33.509388 0.424137 0.000000 0.000000 0.000000 -4.023229 0.173747 -1.714953 -20.676861 14.056251 15.480006 32.970498 -2.123387 4.012164 -9.482290 -2.154076 -11.831732 -5.181745 0.000008 -0.000001 0.000000 0.000000 0.000000 -4.023229 0.173747 -1.714953 6.269646 -9.190056 2.836558 17.880498 -9.010107 -4.580458 -18.645105 -10.144313 6.692797 -7.103127 0.000039 0.000004 0.000000 0.000000 0.000000 -4.023229 0.173747 -1.714953 2.560990 1.416225 2.229199 2.763548 0.214384 2.737832 0.000000 0.000000 0.000000 0.000000 0.000000 0.000000 2.150771 0.207883 2.636246 9.560724 -0.754988 -0.041176 -2.619041 -1.231601 -2.868311 0.000000 0.000000 0.000000 2.150771 0.207883 2.636246 1.047630 -17.445058 -12.396079 0.000000 0.000000 0.000000 2.896036 -1.841283 -72.829303 0.000003 -0.000007 -0.000002 0.000000 0.000000 0.000000 2.150771 0.207883 2.636246 0.909175 9.836911 17.119430 0.000000 0.000000 0.000000 20.234674 6.778532 57.118157 0.000005 1.716665 0.000000 0.000000 0.000000 0.000000 
0.169081 33.564278 0.386469 0.000000 0.000000 0.000000 -3.710106 -0.858565 -1.862317 -20.319575 14.190674 15.539158 32.492484 -2.490074 3.815529 -9.506046 -0.894932 -11.595653 -5.127733 0.000013 -0.000000 0.000000 0.000000 0.000000 -3.710106 -0.858565 -1.862317 5.460997 -9.226588 2.497351 17.658315 -9.036210 -4.264197 -18.014875 -8.947836 6.626891 -7.117347 0.000031 0.000002 0.000000 0.000000 0.000000 -3.710106 -0.858565 -1.862317 2.544946 1.376040 2.197955 2.831158 0.150767 2.687037 0.000000 0.000000 0.000000 0.000000 0.000000 0.000000 2.196842 0.144408 2.578157 9.320653 -0.549424 0.116796 -3.159558 -0.328372 -2.185650 0.000000 0.000000 0.000000 2.196842 0.144408 2.578157 1.059923 -17.650534 -12.335943 0.000000 0.000000 0.000000 2.889722 -2.937133 -72.771704 0.000005 0.000000 0.000000 0.000000 0.000000 0.000000 2.196842 0.144408 2.578157 0.917835 10.162429 16.988002 0.000000 0.000000 0.000000 18.794341 9.081389 57.070947 -0.000007 2.731624 -0.000011 0.000000 0.000000 0.000000 
0.200876 33.619556 0.345272 0.000000 0.000000 0.000000 -3.420413 -1.773089 -1.987190 -19.987534 14.311150 15.544597 31.965374 -2.834473 3.641166 -9.453761 0.260810 -11.317711 -5.080173 0.000002 -0.000000 0.000000 0.000000 0.000000 -3.420413 -1.773089 -1.987190 4.766986 -9.237310 2.224752 17.318319 -9.062138 -4.001201 -17.350158 -7.901246 6.552285 -7.119663 0.000056 0.000003 0.000000 0.000000 0.000000 -3.420413 -1.773089 -1.987190 2.540658 1.337389 2.166032 2.897769 0.089378 2.635345 0.000000 0.000000 0.000000 0.000000 0.000000 0.000000 2.244979 0.083362 2.519839 9.094264 -0.369310 0.236920 -3.638313 0.436004 -1.544461 0.000000 0.000000 0.000000 2.244979 0.083362 2.519839 1.067053 -17.867599 -12.317211 0.000000 0.000000 0.000000 2.667304 -4.182985 -72.610792 -0.000009 0.000003 0.000001 0.000000 0.000000 0.000000 2.244979 0.083362 2.519839 0.927489 10.631353 16.832672 0.000000 0.000000 0.000000 17.267989 11.679320 57.229110 -0.000005 3.804114 0.000005 0.000000 0.000000 0.000000 
0.233855 33.673523 0.302111 0.000000 0.000000 0.000000 -3.153466 -2.575271 -2.101348 -19.696242 14.398344 15.493570 31.438862 -3.167532 3.517610 -9.353120 1.344398 -11.008405 -5.032453 0.000001 0.000001 0.000000 0.000000 0.000000 -3.153466 -2.575271 -2.101348 4.188932 -9.238432 2.008087 16.868544 -9.083934 -3.767520 -16.659052 -6.976821 6.464993 -7.118782 0.000044 0.000004 0.000000 0.000000 0.000000 -3.153466 -2.575271 -2.101348 2.540950 1.307315 2.138346 2.964321 0.041169 2.589775 0.000000 0.000000 0.000000 0.000000 0.000000 0.000000 2.295959 0.035467 2.468559 8.863109 -0.215319 0.330035 -4.069898 1.081281 -0.993367 0.000000 0.000000 0.000000 2.295959 0.035467 2.468559 1.068067 -18.002857 -12.330581 0.000000 0.000000 0.000000 2.263507 -5.692559 -72.343144 0.000005 -0.000003 -0.000001 0.000000 0.000000 0.000000 2.295959 0.035467 2.468559 0.935701 11.253754 16.677083 0.000000 0.000000 0.000000 15.750261 14.503381 57.451590 -0.000009 4.920232 -0.000007 0.000000 0.000000 0.000000 
0.268717 33.725292 0.257990 0.000000 0.000000 0.000000 -2.902716 -3.261588 -2.211272 -19.460747 14.418714 15.431643 30.938028 -3.117709 3.432223 -9.231485 1.989382 -10.762648 -4.979524 0.000007 0.000001 0.000000 0.000000 0.000000 -2.902716 -3.261588 -2.211272 3.725829 -9.240523 1.840989 16.311040 -9.101199 -3.549845 -15.946545 -6.167765 6.364396 -7.116173 0.000057 0.000011 0.000000 0.000000 0.000000 -2.902716 -3.261588 -2.211272 2.543618 1.292149 2.114588 3.027639 0.016437 2.550727 0.000000 0.000000 0.000000 0.000000 0.000000 0.000000 2.346505 0.010962 2.424946 8.616779 -0.089888 0.411630 -4.444154 1.600329 -0.522006 0.000000 0.000000 0.000000 2.346505 0.010962 2.424946 1.064682 -18.031551 -12.359468 0.000000 0.000000 0.000000 1.770336 -7.578644 -71.961944 0.000017 -0.000003 0.000003 0.000000 0.000000 0.000000 2.346505 0.010962 2.424946 0.945481 12.030027 16.501939 0.000000 0.000000 0.000000 14.400411 17.542859 57.561774 0.000007 6.092903 0.000018 0.000000 0.000000 0.000000 
